<svg xmlns="http://www.w3.org/2000/svg" viewBox="0 0 379 70"><defs><style>.cls-1{fill:#fff;}.cls-2{fill:#ce202a;}.cls-3{fill:#3b518d;}.cls-4{fill:#233f86;}.cls-5{fill:#f7f7fb;}.cls-6{fill:#f5f5f9;}.cls-7{fill:#f2f2f8;}.cls-8{fill:#dde2ed;}.cls-9{fill:#e9eaf3;}.cls-10{fill:#e6e7f1;}</style></defs><g id="Layer_2" data-name="Layer 2"><rect class="cls-1" width="379" height="70"/></g><g id="Layer_1" data-name="Layer 1"><path class="cls-2" d="M76.38,41.56V53.4h-4V49H68.7V53.4h-4V41.56h4v4.19h3.68V41.56Z"/><path class="cls-2" d="M88.15,50.39v3H78.3V41.56h9.63v3h-5.7V46h5v2.88h-5v1.56Zm-3.6-9.8-1.43-1.3-1.42,1.3H79.34l2.16-2.7h3.25l2.16,2.7ZM82,56.81a1.41,1.41,0,0,1-.43-1.06,1.46,1.46,0,0,1,1.52-1.51,1.52,1.52,0,0,1,1.1.42,1.51,1.51,0,0,1,.43,1.09,1.41,1.41,0,0,1-.43,1.06,1.67,1.67,0,0,1-2.19,0Z"/><path class="cls-2" d="M97.33,44.65H93.87V41.56h10.92v3.09h-3.47V53.4h-4Z"/><path class="cls-2" d="M117.49,41.56V53.4h-4V49h-3.69V53.4h-4V41.56h4v4.19h3.69V41.56Z"/><path class="cls-2" d="M122.2,52.87a5.93,5.93,0,0,1-2.39-2.21,6.07,6.07,0,0,1,2.39-8.58,7.84,7.84,0,0,1,6.86,0,6.17,6.17,0,0,1,2.39,8.58,5.93,5.93,0,0,1-2.39,2.21,7.75,7.75,0,0,1-6.86,0Zm4.85-12.28-1.42-1-1.42,1h-2.37l2.18-2.2h3.22l2.18,2.2ZM127,50.07a2.59,2.59,0,0,0,1-1,3.24,3.24,0,0,0,.35-1.56,3.28,3.28,0,0,0-.35-1.57,2.65,2.65,0,0,0-1-1,2.56,2.56,0,0,0-1.34-.36,2.6,2.6,0,0,0-1.35.36,2.63,2.63,0,0,0-1,1,3.28,3.28,0,0,0-.36,1.57,3.24,3.24,0,0,0,.36,1.56,2.56,2.56,0,0,0,1,1,2.51,2.51,0,0,0,1.35.37A2.48,2.48,0,0,0,127,50.07Zm2.84-13.45h3.63l-2.82,2.2h-2.54Z"/><path class="cls-2" d="M145.44,41.56V53.4h-3.29L137.66,48V53.4h-3.9V41.56h3.29l4.5,5.38V41.56Z"/><path class="cls-2" d="M155.2,47.15h3.46v5a8,8,0,0,1-2.43,1.12,10.11,10.11,0,0,1-2.73.39,7.31,7.31,0,0,1-3.4-.79,5.89,5.89,0,0,1-2.36-2.2,6.47,6.47,0,0,1,0-6.41,5.91,5.91,0,0,1,2.39-2.2,7.5,7.5,0,0,1,3.46-.78,7.92,7.92,0,0,1,3.12.58,5.91,5.91,0,0,1,2.29,1.7l-2.55,2.25a3.4,3.4,0,0,0-2.66-1.3,2.8,2.8,0,0,0-2.1.79,3.4,3.4,0,0,0,0,4.31,2.65,2.65,0,0,0,2.05.82,3.84,3.84,0,0,0,1.46-.29Z"/><path class="cls-2" d="M164.33,46.24h7.95v2.3h-7.95Zm1.45-4.68h5.84a8,8,0,0,1,3.49.72,5.41,5.41,0,0,1,2.35,2,6.31,6.31,0,0,1,0,6.29,5.49,5.49,0,0,1-2.35,2.06,8,8,0,0,1-3.49.72h-5.84Zm5.67,8.72a2.83,2.83,0,0,0,2.05-.73,2.7,2.7,0,0,0,.77-2.07,2.74,2.74,0,0,0-.77-2.08,2.83,2.83,0,0,0-2.05-.73h-1.68v5.61Z"/><path class="cls-2" d="M187.65,51.33h-4.5l-.79,2.07H178.3l5.18-11.84h3.92l5.18,11.84h-4.13Zm-6.31-13.44H185l2.23,2.7h-2.53Zm5.21,10.57-1.15-3-1.15,3Z"/><path class="cls-2" d="M195.82,52.87a6.15,6.15,0,0,1-2.38-8.58,6,6,0,0,1,2.38-2.21,7.86,7.86,0,0,1,6.87,0,6.15,6.15,0,0,1,2.38,8.58,5.9,5.9,0,0,1-2.38,2.21,7.77,7.77,0,0,1-6.87,0Zm4.78-2.8a2.59,2.59,0,0,0,1-1,3.35,3.35,0,0,0,.35-1.56,3.4,3.4,0,0,0-.35-1.57,2.65,2.65,0,0,0-1-1,2.57,2.57,0,0,0-3.64,1,3.28,3.28,0,0,0-.36,1.57A3.24,3.24,0,0,0,197,49a2.6,2.6,0,0,0,3.64,1Z"/><path class="cls-2" d="M215,44.65h-3.47V41.56H222.5v3.09H219V53.4h-4Z"/><path class="cls-2" d="M231,51.33h-4.5l-.79,2.07h-4.06l5.18-11.84h3.92l5.18,11.84H231.8Zm-3.3,5.48a1.38,1.38,0,0,1-.44-1.06,1.47,1.47,0,0,1,1.53-1.51,1.5,1.5,0,0,1,1.09.42,1.47,1.47,0,0,1,.43,1.09,1.37,1.37,0,0,1-.43,1.06,1.54,1.54,0,0,1-1.09.41A1.52,1.52,0,0,1,227.7,56.81Zm2.2-8.35-1.15-3-1.15,3Z"/><path class="cls-2" d="M239.17,52.87a6.18,6.18,0,0,1-2.38-8.58,6,6,0,0,1,2.38-2.21,7.86,7.86,0,0,1,6.87,0,6.17,6.17,0,0,1,2.39,8.58A5.93,5.93,0,0,1,246,52.87a7.77,7.77,0,0,1-6.87,0Zm4.78-2.8a2.59,2.59,0,0,0,1-1,3.35,3.35,0,0,0,.35-1.56,3.4,3.4,0,0,0-.35-1.57,2.65,2.65,0,0,0-1-1,2.57,2.57,0,0,0-3.64,1,3.28,3.28,0,0,0-.36,1.57,3.24,3.24,0,0,0,.36,1.56,2.6,2.6,0,0,0,3.64,1Z"/><path class="cls-2" d="M258.39,44.65h-3.47V41.56h10.93v3.09h-3.47V53.4h-4Z"/><path class="cls-2" d="M272,50.42h-1.08v3h-4V41.56h5.7a7,7,0,0,1,2.86.54,4.17,4.17,0,0,1,1.87,1.55A4.27,4.27,0,0,1,278,46a4.22,4.22,0,0,1-.57,2.22,4,4,0,0,1-1.66,1.5l2.49,3.66H274ZM273.54,45a1.78,1.78,0,0,0-1.22-.36h-1.45v2.77h1.45a1.78,1.78,0,0,0,1.22-.36,1.33,1.33,0,0,0,.41-1A1.3,1.3,0,0,0,273.54,45Z"/><path class="cls-2" d="M280.9,52.2a5.47,5.47,0,0,1-1.52-4.13V41.56h4V48a3.05,3.05,0,0,0,.46,1.89,1.81,1.81,0,0,0,2.69,0A3,3,0,0,0,287,48V41.56h3.92v6.51a5.51,5.51,0,0,1-1.52,4.13,6.86,6.86,0,0,1-8.49,0Zm3.19,4.61a1.37,1.37,0,0,1-.43-1.06,1.47,1.47,0,0,1,.43-1.09,1.62,1.62,0,0,1,2.18,0,1.47,1.47,0,0,1,.43,1.09,1.37,1.37,0,0,1-.43,1.06,1.65,1.65,0,0,1-2.18,0Zm4.74-15.25h.68a.89.89,0,0,0,.65-.29,1,1,0,0,0,.28-.75,1.39,1.39,0,0,0-.34-1l2.17-.76a3.34,3.34,0,0,1-.31,4.25,3.77,3.77,0,0,1-2.62.84h-.51Z"/><path class="cls-2" d="M295.82,52.88a5.83,5.83,0,0,1-2.36-2.2,6.4,6.4,0,0,1,0-6.41,5.9,5.9,0,0,1,2.36-2.2,7.23,7.23,0,0,1,3.38-.78,7.52,7.52,0,0,1,3.08.6,5.85,5.85,0,0,1,2.23,1.76L302,45.9a3.23,3.23,0,0,0-2.59-1.38,2.63,2.63,0,0,0-2,.8,3.44,3.44,0,0,0,0,4.31,2.64,2.64,0,0,0,2,.81A3.24,3.24,0,0,0,302,49.05l2.52,2.25a5.76,5.76,0,0,1-2.23,1.76,7.52,7.52,0,0,1-3.08.61A7.23,7.23,0,0,1,295.82,52.88Z"/><path class="cls-2" d="M313.31,44.65h-3.47V41.56h10.92v3.09H317.3V53.4h-4Z"/><path class="cls-2" d="M323.05,52.2a5.47,5.47,0,0,1-1.52-4.13V41.56h4V48a3.05,3.05,0,0,0,.46,1.89,1.81,1.81,0,0,0,2.69,0,3,3,0,0,0,.47-1.89V41.56h3.92v6.51a5.51,5.51,0,0,1-1.52,4.13,6.86,6.86,0,0,1-8.49,0Z"/><path class="cls-2" d="M341.76,49.1v4.3h-4V49.05l-4.46-7.49h4.21l2.42,4.09,2.43-4.09h3.86Z"/><path class="cls-2" d="M356.57,50.39v3h-9.84V41.56h9.62v3h-5.7V46h5v2.88h-5v1.56Zm-3.6-9.8-1.42-1-1.42,1h-2.37l2.18-2.2h3.22l2.18,2.2Zm2.76-4h3.63l-2.82,2.2H354Z"/><path class="cls-2" d="M369.78,41.56V53.4H366.5L362,48V53.4h-3.89V41.56h3.28l4.5,5.38V41.56Z"/><path class="cls-3" d="M90.81,18.61H87.42V17.38h8.16v1.23H92.2v8.64H90.81Z"/><path class="cls-3" d="M103.72,27.25l-2.13-3-.62,0H98.53v3H97.12V17.38H101a4.6,4.6,0,0,1,3,.92,3.11,3.11,0,0,1,1.1,2.52,3.28,3.28,0,0,1-.57,1.95,3.2,3.2,0,0,1-1.61,1.17l2.34,3.31ZM103,22.47a2,2,0,0,0,.71-1.65,2,2,0,0,0-.71-1.64,3.18,3.18,0,0,0-2-.57h-2.4v4.44h2.4A3.12,3.12,0,0,0,103,22.47Z"/><path class="cls-3" d="M108.38,26.24a4.5,4.5,0,0,1-1.1-3.25V17.38h1.41v5.56c0,2.11.93,3.17,2.78,3.17a2.68,2.68,0,0,0,2.07-.78,3.43,3.43,0,0,0,.72-2.39V17.38h1.37V23a4.45,4.45,0,0,1-1.1,3.25,4.78,4.78,0,0,1-6.15,0Zm6.56-8.86h.25a.86.86,0,0,0,.68-.25,1,1,0,0,0,.22-.66,1.43,1.43,0,0,0-.28-.89l.86-.32a2,2,0,0,1,.39,1.25,1.92,1.92,0,0,1-.49,1.39,1.86,1.86,0,0,1-1.38.51h-.25Z"/><path class="cls-3" d="M127.78,20a5.26,5.26,0,0,1-.14,4.87,4.81,4.81,0,0,1-1.88,1.81,5.87,5.87,0,0,1-5.37,0,4.89,4.89,0,0,1-2.56-4.39,4.94,4.94,0,0,1,.68-2.59,4.84,4.84,0,0,1,1.9-1.8,5.56,5.56,0,0,1,2.72-.66,14.82,14.82,0,0,1,1.58.11c.52.06.9.09,1.12.09a1.66,1.66,0,0,0,1-.26.9.9,0,0,0,.34-.77,1.57,1.57,0,0,0-.28-.87l.85-.34a2.21,2.21,0,0,1,.39,1.27,1.72,1.72,0,0,1-.46,1.24,2.16,2.16,0,0,1-1.33.58A4.62,4.62,0,0,1,127.78,20ZM125,25.62a3.65,3.65,0,0,0,1.37-1.36,4,4,0,0,0,0-3.88A3.58,3.58,0,0,0,125,19a4.15,4.15,0,0,0-3.91,0,3.54,3.54,0,0,0-1.38,1.36,4,4,0,0,0,0,3.88,3.61,3.61,0,0,0,1.38,1.36,4.15,4.15,0,0,0,3.91,0ZM120.5,14.75h1.72l1.92,1.83h-1.27Z"/><path class="cls-3" d="M139,17.38v9.87H137.8l-5.92-7.36v7.36h-1.41V17.38h1.16l5.92,7.36V17.38Z"/><path class="cls-3" d="M148.75,22.26h1.36v3.85a5.43,5.43,0,0,1-1.71.93,6.25,6.25,0,0,1-2,.32,5.46,5.46,0,0,1-2.69-.65,4.81,4.81,0,0,1-1.88-1.81,4.88,4.88,0,0,1-.69-2.58,5,5,0,0,1,.69-2.6,4.72,4.72,0,0,1,1.88-1.8,6.06,6.06,0,0,1,4.87-.26,4.5,4.5,0,0,1,1.64,1.13l-.87.88a4,4,0,0,0-2.87-1.14,4.22,4.22,0,0,0-2,.48,3.59,3.59,0,0,0-1.4,1.36,3.73,3.73,0,0,0-.51,1.95,3.77,3.77,0,0,0,.51,1.94,3.66,3.66,0,0,0,1.4,1.36,4.1,4.1,0,0,0,2,.49,4.19,4.19,0,0,0,2.31-.63Z"/><path class="cls-3" d="M155.27,21.67h5.63v1.11h-5.63Zm1.43-4.29h4.16a6.08,6.08,0,0,1,2.78.62,4.61,4.61,0,0,1,1.88,1.75,5.26,5.26,0,0,1,0,5.14,4.52,4.52,0,0,1-1.88,1.74,6,6,0,0,1-2.78.62H156.7ZM160.78,26a4.52,4.52,0,0,0,2.1-.47,3.35,3.35,0,0,0,1.41-1.3,4.09,4.09,0,0,0,0-3.88,3.35,3.35,0,0,0-1.41-1.3,4.52,4.52,0,0,0-2.1-.47h-2.67V26Z"/><path class="cls-3" d="M174.49,24.78h-5.24l-1.09,2.47h-1.45l4.47-9.87h1.39l4.49,9.87h-1.48ZM174,23.66l-2.13-4.84-2.13,4.84Zm-2.62,6.16a.66.66,0,0,1-.21-.51.7.7,0,0,1,.21-.52.71.71,0,0,1,1,0,.7.7,0,0,1,.21.52.66.66,0,0,1-.21.51.72.72,0,0,1-.51.19A.71.71,0,0,1,171.38,29.82Z"/><path class="cls-3" d="M178.52,17.38h1.41v9.87h-1.41Z"/><path class="cls-3" d="M195.17,17.38v9.87h-1.41v-4.4h-5.67v4.4h-1.41V17.38h1.41v4.25h5.67V17.38Z"/><path class="cls-3" d="M199.89,26.71a5.1,5.1,0,0,1-1.88-7,4.81,4.81,0,0,1,1.88-1.81,5.79,5.79,0,0,1,5.37,0,4.79,4.79,0,0,1,1.88,1.8,5,5,0,0,1,.67,2.59,5,5,0,0,1-.67,2.58,4.81,4.81,0,0,1-1.88,1.81,5.87,5.87,0,0,1-5.37,0Zm4.65-1.09a3.7,3.7,0,0,0,1.36-1.36,4,4,0,0,0,0-3.88A3.62,3.62,0,0,0,204.54,19a4.16,4.16,0,0,0-3.92,0,3.54,3.54,0,0,0-1.38,1.36,4,4,0,0,0,0,3.88,3.61,3.61,0,0,0,1.38,1.36,4.16,4.16,0,0,0,3.92,0Zm-2.46,4.2a.66.66,0,0,1-.21-.51.7.7,0,0,1,.21-.52.71.71,0,0,1,1,0,.7.7,0,0,1,.21.52.66.66,0,0,1-.21.51.72.72,0,0,1-.51.19A.71.71,0,0,1,202.08,29.82Z"/><path class="cls-3" d="M211.71,26.71a4.87,4.87,0,0,1-2.54-4.39,5,5,0,0,1,.67-2.59,4.86,4.86,0,0,1,1.88-1.8,5.46,5.46,0,0,1,2.68-.66,5.54,5.54,0,0,1,2.11.39,4.32,4.32,0,0,1,1.64,1.15l-.92.89a3.68,3.68,0,0,0-2.78-1.17,4,4,0,0,0-2,.49,3.5,3.5,0,0,0-1.39,1.36,4,4,0,0,0,0,3.88,3.57,3.57,0,0,0,1.39,1.36,4,4,0,0,0,2,.49,3.68,3.68,0,0,0,2.78-1.18l.92.88A4.3,4.3,0,0,1,216.5,27a5.59,5.59,0,0,1-2.12.39A5.44,5.44,0,0,1,211.71,26.71Z"/><path class="cls-3" d="M224.68,27a4.42,4.42,0,0,1-1.63-.9l.52-1.1a4.31,4.31,0,0,0,1.45.83,5.31,5.31,0,0,0,1.81.32,3.21,3.21,0,0,0,1.83-.42,1.28,1.28,0,0,0,.61-1.11,1.09,1.09,0,0,0-.33-.82,2.39,2.39,0,0,0-.82-.49c-.33-.11-.78-.24-1.38-.38a14,14,0,0,1-1.79-.53,3,3,0,0,1-1.17-.83,2.17,2.17,0,0,1-.49-1.5,2.52,2.52,0,0,1,.42-1.42,2.78,2.78,0,0,1,1.26-1,5.15,5.15,0,0,1,2.1-.38,6.72,6.72,0,0,1,1.72.23,4.39,4.39,0,0,1,1.45.65l-.47,1.12a5.25,5.25,0,0,0-1.32-.6,5.17,5.17,0,0,0-1.38-.2,3.06,3.06,0,0,0-1.8.44,1.32,1.32,0,0,0-.6,1.12,1.07,1.07,0,0,0,.34.83,2.33,2.33,0,0,0,.84.49c.33.12.79.24,1.36.38a12.5,12.5,0,0,1,1.79.53,3,3,0,0,1,1.16.82,2.13,2.13,0,0,1,.49,1.48,2.54,2.54,0,0,1-.42,1.42,2.91,2.91,0,0,1-1.29,1,5.25,5.25,0,0,1-2.11.37A6.77,6.77,0,0,1,224.68,27Z"/><path class="cls-3" d="M233.72,26.24a4.5,4.5,0,0,1-1.1-3.25V17.38H234v5.56c0,2.11.93,3.17,2.78,3.17a2.68,2.68,0,0,0,2.07-.78,3.43,3.43,0,0,0,.72-2.39V17.38H241V23a4.45,4.45,0,0,1-1.1,3.25,4.78,4.78,0,0,1-6.15,0Zm6.56-8.86h.25a.86.86,0,0,0,.68-.25,1,1,0,0,0,.22-.66,1.43,1.43,0,0,0-.28-.89l.86-.32a2,2,0,0,1,.39,1.25,1.88,1.88,0,0,1-.5,1.39,1.83,1.83,0,0,1-1.37.51h-.25Z"/><path class="cls-3" d="M254.63,18.3a3.11,3.11,0,0,1,1.1,2.52,3.12,3.12,0,0,1-1.1,2.53,4.59,4.59,0,0,1-3,.91h-2.44v3h-1.41V17.38h3.85A4.6,4.6,0,0,1,254.63,18.3Zm-1,4.17a2,2,0,0,0,.71-1.65,2,2,0,0,0-.71-1.64,3.18,3.18,0,0,0-2-.57h-2.4V23h2.4A3.18,3.18,0,0,0,253.61,22.47Z"/><path class="cls-3" d="M266.28,17.38v9.87h-1.41v-4.4H259.2v4.4h-1.4V17.38h1.4v4.25h5.67V17.38Z"/><path class="cls-3" d="M275.53,24.78h-5.25l-1.08,2.47h-1.45l4.47-9.87h1.39l4.48,9.87h-1.48Zm-.5-1.12-2.12-4.84-2.13,4.84Zm-2.62,6.16a.66.66,0,0,1-.21-.51.72.72,0,1,1,1.44,0,.66.66,0,0,1-.21.51.78.78,0,0,1-1,0Z"/><path class="cls-3" d="M288.71,27.25l0-7.19-3.56,6h-.65l-3.57-5.94v7.14h-1.35V17.38h1.16l4.11,6.94,4.06-6.94h1.16v9.87Z"/><path class="cls-3" d="M305.3,17.38v9.87h-1.41v-4.4h-5.67v4.4h-1.41V17.38h1.41v4.25h5.67V17.38Z"/><path class="cls-3" d="M314.54,24.78H309.3l-1.08,2.47h-1.46l4.47-9.87h1.4l4.48,9.87h-1.48Zm-5.18-10h1.72L313,16.58h-1.26Zm4.69,8.91-2.13-4.84-2.13,4.84Z"/><path class="cls-3" d="M330.85,17.38v9.87H329.7l-5.92-7.36v7.36h-1.41V17.38h1.15l5.93,7.36V17.38Z"/><path class="cls-3" d="M335.58,26.71a4.91,4.91,0,0,1-1.89-1.81,5.23,5.23,0,0,1,0-5.16,4.84,4.84,0,0,1,1.89-1.81,5.79,5.79,0,0,1,5.37,0,4.76,4.76,0,0,1,1.87,1.8,5,5,0,0,1,.68,2.59,5,5,0,0,1-.68,2.58A4.79,4.79,0,0,1,341,26.71a5.87,5.87,0,0,1-5.37,0Zm4.64-1.09a3.72,3.72,0,0,0,1.37-1.36,4,4,0,0,0,0-3.88A3.65,3.65,0,0,0,340.22,19a3.87,3.87,0,0,0-2-.49,3.94,3.94,0,0,0-2,.49,3.54,3.54,0,0,0-1.38,1.36,4,4,0,0,0,0,3.88,3.61,3.61,0,0,0,1.38,1.36,3.94,3.94,0,0,0,2,.49A3.87,3.87,0,0,0,340.22,25.62Zm-.65-9-1.3-1.08L337,16.58h-1.22l1.87-1.83h1.3l1.87,1.83Zm-1.81,13.24a.66.66,0,0,1-.21-.51.72.72,0,0,1,.72-.73.71.71,0,0,1,.51.21.7.7,0,0,1,.21.52.66.66,0,0,1-.21.51.74.74,0,0,1-.51.19A.72.72,0,0,1,337.76,29.82Z"/><path class="cls-3" d="M345.65,17.38h1.41v9.87h-1.41Z"/><circle class="cls-4" cx="32.58" cy="35" r="27.1"/><path class="cls-1" d="M27.87,50.28H26.75v-2H25.23v2H24.11V45.83h1.12v1.63h1.52V45.83h1.12Z"/><path class="cls-1" d="M32.61,50.28H31.53l-1.72-3.1v3.1h-1V45.83h1.37l1.43,2.55V45.83h1Z"/><path class="cls-1" d="M35.31,50.38a2,2,0,0,1-1.38-.44,1.62,1.62,0,0,1-.48-1.27V45.83h1.12v2.78a1.17,1.17,0,0,0,.17.69.69.69,0,0,0,.57.23.72.72,0,0,0,.57-.22,1.11,1.11,0,0,0,.18-.7V45.83h1.12v2.84a1.68,1.68,0,0,1-.47,1.27A2,2,0,0,1,35.31,50.38Z"/><path class="cls-1" d="M38,50.28V45.83h3v.85h-1.9v.78H40.9v.85H39.15v1.12h1.9v.85Z"/><path class="cls-5" d="M11.09,37.9,13.36,35c.21-.28.39-.52.84-.47,4,.39,8.09.08,12.13.18a17,17,0,0,1,3.27.12,3.93,3.93,0,0,1,2.92,2.26,4.47,4.47,0,0,1,4.41-2.39c3.91,0,7.81,0,11.72,0,.35,0,.7,0,1.05,0,.58,0,1.32-.5,1.7,0,.82,1.1,2,2,2.32,3.41l-16,0a8.73,8.73,0,0,0-4.79,1,.59.59,0,0,1-.68,0,8.75,8.75,0,0,0-4.89-1H12.41C12,38.1,11.49,38.23,11.09,37.9Z"/><path class="cls-6" d="M32.54,30.2a5.25,5.25,0,0,1,2.52-2.41c2.56-1.23,5.28-2.14,7.66-3.74.39-.26.52,0,.66.23,2,2.71,2.45,2-.65,3.52s-6.1,2.57-9,4.2a2,2,0,0,1-2.41,0c-2.58-1.51-5.41-2.53-8.12-3.79-.29-.14-.58-.26-.86-.41-3.16-1.68-2.59-.87-.69-3.53.18-.26.33-.46.75-.19a50.37,50.37,0,0,0,7.2,3.5A5.7,5.7,0,0,1,32.54,30.2Z"/><path class="cls-7" d="M32.53,25.8c-1.9-1.92-4.21-3.3-6.29-5-1.36-1.1-1.36-1.1-.63-2.63l.6-1.26c1.79,2.43,5.11,3.16,6.32,6.14,1.21-3,4.52-3.71,6.31-6.13.16.32.27.54.37.76,1,2.07,1,2.07-.87,3.5A55.5,55.5,0,0,0,32.53,25.8Z"/><path class="cls-8" d="M54.82,39l.65,1a6.9,6.9,0,0,1-2.18.27H36.93c-1.19,0-2.43-.11-3.14,1.22a3.67,3.67,0,0,1-2.51,0c-.74-1.35-2-1.21-3.24-1.22H13.15A13.41,13.41,0,0,1,9.69,40c0-.47.43-.64.54-1a12.68,12.68,0,0,0,2.82.22c5.1,0,10.19,0,15.29,0,1.59,0,3.14.22,4.2,1.68,1.06-1.47,2.61-1.67,4.17-1.68,5.24,0,10.48,0,15.71,0A8.78,8.78,0,0,0,54.82,39Z"/><path class="cls-9" d="M32.68,34.92c-.87.13-1.41,0-1.79-.73-.26-.53-.95-.68-1.49-.93-2.95-1.34-5.9-2.66-8.84-4a14.08,14.08,0,0,1-1.48-.8c-.36-.21-.32-.48-.07-.78s.34-.48.75-.23C23.2,29.53,27,30.78,30.62,32.6c.69.35,1.31,1.13,1.93,1.11s1.19-.78,1.87-1.09c1.89-.85,3.77-1.72,5.66-2.58a37.22,37.22,0,0,0,5.1-2.53c.46-.3.65-.14.92.21s0,.66-.25.83a18,18,0,0,1-1.69.87l-8.75,3.94a2.7,2.7,0,0,0-1.57,1.31C33.57,35.28,32.94,34.81,32.68,34.92Z"/><path class="cls-10" d="M24.69,20.41c2.37,2.46,5.51,3.94,7.84,6.43a40.85,40.85,0,0,1,5.28-4.24c.72-.57,1.4-1.18,2.12-1.75.17-.13.29-.62.62-.25s.45.6.11.94a9.75,9.75,0,0,1-1,.92q-2,1.47-4,2.91a3.73,3.73,0,0,0-1.75,2c0,.18-.1.35-.32.35-.56,0-1.13,0-1.68,0-.83.11-.71-.61-.95-1a5.13,5.13,0,0,0-1.38-1.29C28,24.31,26.39,23.15,24.81,22,24.28,21.57,24,21.09,24.69,20.41Z"/><path class="cls-1" d="M15.56,50a1.37,1.37,0,0,1,.25.41,1.12,1.12,0,0,1,.08.43,1.19,1.19,0,0,1-.11.42,1.17,1.17,0,0,1-.28.36,1.09,1.09,0,0,1-.4.23.9.9,0,0,1-.43.05,1,1,0,0,1-.42-.13,1.21,1.21,0,0,1-.38-.31l-.61-.69L14,50.1l-.22-.25.21-.19.22.26.73-.65Zm-1.35,1.21a.65.65,0,0,0,.21.16.48.48,0,0,0,.24.06.72.72,0,0,0,.5-.19.76.76,0,0,0,.17-.23.57.57,0,0,0,.08-.25.73.73,0,0,0,0-.25.62.62,0,0,0-.14-.23L15,49.93l-.41.36.36.42-.21.18-.36-.41-.42.37Z"/><path class="cls-1" d="M15.57,52.61l-.42.2-.38-.36,2.23-1,.38.36-.82,2.28-.4-.36.17-.44Zm0,.77a.25.25,0,0,1,.08.16.26.26,0,0,1-.07.18.25.25,0,0,1-.17.08.23.23,0,0,1-.18-.06.27.27,0,0,1-.08-.17.29.29,0,0,1,.08-.18.23.23,0,0,1,.17-.08A.23.23,0,0,1,15.58,53.38ZM16.82,52l-.85.39.52.48Z"/><path class="cls-1" d="M16.83,54.3l1.4-1.74.39.31-1.39,1.75Z"/><path class="cls-1" d="M19.63,56.29l.47-.75L19.25,55l-.47.74-.43-.27,1.2-1.88.43.27-.5.78.85.55.5-.79.42.27-1.2,1.89Z"/><path class="cls-1" d="M22.54,55.32a1.24,1.24,0,0,1,.39.29,1.14,1.14,0,0,1,.23.38,1.05,1.05,0,0,1,.07.43,1.16,1.16,0,0,1-.12.44,1,1,0,0,1-.28.37,1.33,1.33,0,0,1-.39.21,1.3,1.3,0,0,1-.44.05,1.34,1.34,0,0,1-.47-.14,1.24,1.24,0,0,1-.39-.29,1.14,1.14,0,0,1-.23-.38,1.07,1.07,0,0,1-.07-.44A1.16,1.16,0,0,1,21,55.8a1,1,0,0,1,.28-.36,1.06,1.06,0,0,1,.39-.21,1.09,1.09,0,0,1,.44,0A1.34,1.34,0,0,1,22.54,55.32Zm-1.06,2.13a.21.21,0,0,1,.13.13.25.25,0,0,1,0,.19.22.22,0,0,1-.14.13.23.23,0,0,1-.18,0,.22.22,0,0,1-.13-.14.26.26,0,0,1,0-.19.22.22,0,0,1,.14-.13A.23.23,0,0,1,21.48,57.45Zm.87-1.74a.77.77,0,0,0-.26-.07.84.84,0,0,0-.27,0,.68.68,0,0,0-.4.35.9.9,0,0,0-.07.27.84.84,0,0,0,0,.27.76.76,0,0,0,.13.23.83.83,0,0,0,.21.16A.63.63,0,0,0,22,57a.75.75,0,0,0,.26,0,.76.76,0,0,0,.23-.13.92.92,0,0,0,.17-.22.68.68,0,0,0,.07-.27.57.57,0,0,0,0-.26.65.65,0,0,0-.13-.23A.87.87,0,0,0,22.35,55.71Z"/><path class="cls-1" d="M24.76,56.27l.21.11a1.49,1.49,0,0,1,.2.15,1.46,1.46,0,0,1,.16.19.72.72,0,0,1,.12.21l-.4.23a.79.79,0,0,0-.18-.29.67.67,0,0,0-.26-.19.63.63,0,0,0-.27,0,.67.67,0,0,0-.46.21.65.65,0,0,0-.15.24.86.86,0,0,0-.05.27.92.92,0,0,0,.06.25,1.07,1.07,0,0,0,.15.22.71.71,0,0,0,.55.18.89.89,0,0,0,.32-.08l.16.41a1.31,1.31,0,0,1-.49.12,1.15,1.15,0,0,1-.49-.07,1.38,1.38,0,0,1-.41-.24,1.27,1.27,0,0,1-.26-.36,1.23,1.23,0,0,1-.1-.43,1.18,1.18,0,0,1,.07-.45,1.14,1.14,0,0,1,.25-.39.88.88,0,0,1,.36-.24,1,1,0,0,1,.43-.09A1.16,1.16,0,0,1,24.76,56.27Z"/><path class="cls-1" d="M27.3,57a1.84,1.84,0,0,1,.43.17,1.35,1.35,0,0,1,.34.27l-.29.36-.15-.14-.17-.11-.15-.09-.15-.05a.37.37,0,0,0-.21,0,.14.14,0,0,0-.11.11.2.2,0,0,0,.05.18,1,1,0,0,0,.19.15l.26.15a1.14,1.14,0,0,1,.25.18.81.81,0,0,1,.17.24.64.64,0,0,1,0,.34.6.6,0,0,1-.14.26.66.66,0,0,1-.23.17,1.33,1.33,0,0,1-.3.06,1.37,1.37,0,0,1-.34,0,1.5,1.5,0,0,1-.5-.22,1.45,1.45,0,0,1-.38-.36l.29-.35.15.18.18.15a1.18,1.18,0,0,0,.19.11.67.67,0,0,0,.18.07.36.36,0,0,0,.25,0,.18.18,0,0,0,.12-.13.2.2,0,0,0,0-.18,1,1,0,0,0-.19-.15l-.26-.14a1.14,1.14,0,0,1-.25-.18.66.66,0,0,1-.17-.24.52.52,0,0,1,0-.33.53.53,0,0,1,.12-.25.6.6,0,0,1,.22-.16A.94.94,0,0,1,27,57,1.45,1.45,0,0,1,27.3,57Z"/><path class="cls-1" d="M30.32,57.86l-.15,1a1.12,1.12,0,0,1-.12.39.78.78,0,0,1-.24.27.79.79,0,0,1-.34.14,1.17,1.17,0,0,1-.42,0,1,1,0,0,1-.41-.13,1,1,0,0,1-.29-.23.85.85,0,0,1-.16-.33,1.07,1.07,0,0,1,0-.4l.18-1.29.5.07-.18,1.29a.49.49,0,0,0,.08.4.52.52,0,0,0,.35.18.46.46,0,0,0,.38-.08.57.57,0,0,0,.19-.36l.18-1.28.31,0a.29.29,0,0,0,.13-.05.36.36,0,0,0,.11-.22l.39.06a.56.56,0,0,1-.24.42A.5.5,0,0,1,30.32,57.86Z"/><path class="cls-1" d="M32.4,57.67a1,1,0,0,1,.66.21.75.75,0,0,1,.23.58.79.79,0,0,1-.25.6,1,1,0,0,1-.66.21h-.44l0,.64h-.5l0-2.23Zm-.46,1.17h.42a.54.54,0,0,0,.33-.09.43.43,0,0,0,.12-.29.35.35,0,0,0-.11-.28.48.48,0,0,0-.33-.1H32Z"/><path class="cls-1" d="M35.22,59.77l-.07-.88-1,.09.07.88-.5,0-.19-2.22.51,0,.07.93,1-.08L35,57.55l.51,0,.18,2.23Z"/><path class="cls-1" d="M36.7,59.13l-.09.46-.51.1.53-2.38.51-.1,1.36,2-.53.1-.25-.39ZM37,57.78l-.18.92.69-.13Zm.36,1.8a.24.24,0,0,1,.18,0,.26.26,0,0,1,.1.16.26.26,0,0,1,0,.19.24.24,0,0,1-.15.1.22.22,0,0,1-.18,0,.2.2,0,0,1-.1-.16.21.21,0,0,1,0-.19A.29.29,0,0,1,37.33,59.58Z"/><path class="cls-1" d="M40.76,58.54l-.45-1.43-.18,1.39-.32.1-.94-1L39.32,59l-.44.13L38.21,57l.54-.17,1,1.11.21-1.5.54-.16.66,2.13Z"/><path class="cls-1" d="M43.92,57.19l-.39-.79-.91.44.39.79-.46.22-1-2,.45-.22.41.84.91-.44-.41-.84.45-.22,1,2Z"/><path class="cls-1" d="M43.81,54.07l.29-.39.57.26-.33.21Zm1.26,2,.08.46-.44.27-.36-2.4.44-.28,2,1.39-.46.29-.38-.28Zm-.23-1.36.15.93.6-.38Z"/><path class="cls-1" d="M48.94,53.79l-1.75-.41.92,1.1-.37.31-1.43-1.71.35-.3,1.75.41-.92-1.1.37-.31,1.43,1.72Z"/><path class="cls-1" d="M48.84,50.46l-.33-.05.07.33-.25.26-.1-.58.28-.3.58.08Zm0,.29a1.48,1.48,0,0,1,.39-.28,1.36,1.36,0,0,1,.44-.11,1.29,1.29,0,0,1,.43.07,1.18,1.18,0,0,1,.39.25,1.22,1.22,0,0,1,.26.38,1.26,1.26,0,0,1,.08.43,1.15,1.15,0,0,1-.09.44,1.18,1.18,0,0,1-.27.4,1.28,1.28,0,0,1-.39.28,1,1,0,0,1-.44.11,1.13,1.13,0,0,1-.44-.07,1,1,0,0,1-.38-.25,1,1,0,0,1-.26-.38,1.07,1.07,0,0,1-.09-.43,1.47,1.47,0,0,1,.1-.44A1.28,1.28,0,0,1,48.87,50.75Zm.32.3a.65.65,0,0,0-.15.23.8.8,0,0,0,0,.26.58.58,0,0,0,.06.26.6.6,0,0,0,.16.23.65.65,0,0,0,.23.15.86.86,0,0,0,.27,0,.78.78,0,0,0,.48-.21.68.68,0,0,0,.14-.23.53.53,0,0,0,0-.25.75.75,0,0,0,0-.26.73.73,0,0,0-.16-.23.61.61,0,0,0-.24-.15.58.58,0,0,0-.26,0,.74.74,0,0,0-.25,0A.86.86,0,0,0,49.19,51.05Zm1.39,1.36a.21.21,0,0,1,.16-.08.26.26,0,0,1,.18.07.25.25,0,0,1,.08.18.24.24,0,0,1-.24.24.27.27,0,0,1-.18-.07.25.25,0,0,1-.08-.17A.21.21,0,0,1,50.58,52.41Z"/><path class="cls-1" d="M51.58,51.11l-1.72-1.43.33-.39,1.71,1.43Z"/></g></svg>